HIERARCHY
ROOT Hips
{
    OFFSET 0.000000 0.000000 0.000000
    CHANNELS 6 Xposition Yposition Zposition Zrotation Xrotation Yrotation
    JOINT Spine
    {
        OFFSET -0.000000 14.517291 0.000000
        CHANNELS 3 Zrotation Xrotation Yrotation
        JOINT Spine1
        {
            OFFSET -0.000000 37.558300 0.000000
            CHANNELS 3 Zrotation Xrotation Yrotation
            JOINT Neck
            {
                OFFSET -0.000000 37.404057 3.400369
                CHANNELS 3 Zrotation Xrotation Yrotation
                JOINT Head
                {
                    OFFSET -0.000000 24.785618 -3.540803
                    CHANNELS 3 Zrotation Xrotation Yrotation
                    End Site
                    {
                        OFFSET -0.000000 35.408028 0.000000
                    }
                }
            }
            JOINT LeftShoulder
            {
                OFFSET 6.992933 33.973492 -0.192664
                CHANNELS 3 Zrotation Xrotation Yrotation
                JOINT LeftArm
                {
                    OFFSET 21.527611 0.000000 0.000000
                    CHANNELS 3 Zrotation Xrotation Yrotation
                    JOINT LeftForeArm
                    {
                        OFFSET 56.353916 0.000000 0.000000
                        CHANNELS 3 Zrotation Xrotation Yrotation
                        JOINT LeftHand
                        {
                            OFFSET 47.774071 0.000000 0.000000
                            CHANNELS 3 Zrotation Xrotation Yrotation
                            End Site
                            {
                                OFFSET 26.556021 0.000000 0.000000
                            }
                        }
                    }
                }
            }
            JOINT RightShoulder
            {
                OFFSET -7.065357 33.973492 -0.192664
                CHANNELS 3 Zrotation Xrotation Yrotation
                JOINT RightArm
                {
                    OFFSET -21.527611 0.000000 0.000000
                    CHANNELS 3 Zrotation Xrotation Yrotation
                    JOINT RightForeArm
                    {
                        OFFSET -56.353916 0.000000 0.000000
                        CHANNELS 3 Zrotation Xrotation Yrotation
                        JOINT RightHand
                        {
                            OFFSET -47.774071 0.000000 0.000000
                            CHANNELS 3 Zrotation Xrotation Yrotation
                            End Site
                            {
                                OFFSET -26.556021 0.000000 0.000000
                            }
                        }
                    }
                }
            }
        }
    }
    JOINT LeftUpLeg
    {
        OFFSET 17.704014 0.000000 0.000000
        CHANNELS 3 Zrotation Xrotation Yrotation
        JOINT LeftLeg
        {
            OFFSET -0.000000 -81.181816 0.000000
            CHANNELS 3 Zrotation Xrotation Yrotation
            JOINT LeftFoot
            {
                OFFSET -0.000000 -62.821102 0.000000
                CHANNELS 3 Zrotation Xrotation Yrotation
                JOINT LeftToeBase
                {
                    OFFSET -0.000000 -11.507608 26.556021
                    CHANNELS 3 Zrotation Xrotation Yrotation
                    End Site
                    {
                        OFFSET -0.000000 0.000000 7.081605
                    }
                }
            }
        }
    }
    JOINT RightUpLeg
    {
        OFFSET -17.704014 0.000000 0.000000
        CHANNELS 3 Zrotation Xrotation Yrotation
        JOINT RightLeg
        {
            OFFSET -0.000000 -81.181816 0.000000
            CHANNELS 3 Zrotation Xrotation Yrotation
            JOINT RightFoot
            {
                OFFSET -0.000000 -62.821102 0.000000
                CHANNELS 3 Zrotation Xrotation Yrotation
                JOINT RightToeBase
                {
                    OFFSET -0.000000 -11.507608 26.556021
                    CHANNELS 3 Zrotation Xrotation Yrotation
                    End Site
                    {
                        OFFSET -0.000000 0.000000 7.081605
                    }
                }
            }
        }
    }
}
MOTION
Frames:    5
Frame Time:    0.008333
11.628474    154.464066    -119.699135    -1.658870    -7.493443    46.290550    0.744182    -2.000726    -1.295895    -9.711848    4.202051    -0.080159    -1.883129    -0.963790    -20.878685    20.951124    7.602654    -19.994202    9.890672    6.034738    -31.742577    -18.928707    29.125553    -63.018955    -23.448784    0.360106    -26.928942    -2.309412    -5.049325    -13.944199    -16.578232    -9.310070    0.584271    32.066448    -22.715239    83.736732    1.178515    -7.751260    16.322140    -5.117802    -9.188901    28.162216    21.852638    -5.956159    -0.463815    -14.728265    39.917549    -19.319298    4.651839    -28.690310    42.840527    0.000000    0.000000    0.000000    -16.053183    -16.193375    -15.547942    8.945051    22.929522    -16.435385    5.651029    10.261281    -14.431067    0.000000    0.000000    0.000000    
11.649297    154.478867    -119.687355    -1.652480    -7.484432    46.314697    0.735202    -1.978312    -1.316564    -9.712479    4.168998    -0.089649    -1.838340    -0.955739    -20.869879    20.898861    7.574856    -19.990669    9.901720    5.984675    -31.775360    -18.754026    28.844744    -63.465698    -23.671583    0.307220    -28.358566    -2.246294    -5.486694    -13.730361    -16.563074    -9.278420    0.566857    32.057804    -22.717625    83.772400    1.183828    -7.729314    16.315214    -5.122643    -9.169978    28.184568    21.836029    -5.949089    -0.471827    -14.708234    39.894062    -19.336916    4.647219    -28.674345    42.835194    0.000000    0.000000    0.000000    -16.062202    -16.181524    -15.547774    8.935233    22.930420    -16.448753    5.661143    10.260996    -14.437482    0.000000    0.000000    0.000000    
11.671426    154.489166    -119.679169    -1.646601    -7.468007    46.336983    0.725570    -1.967687    -1.344257    -9.715302    4.147371    -0.100514    -1.839635    -0.940630    -20.864750    20.911896    7.551673    -19.980043    9.905143    5.929460    -31.795107    -18.573406    28.574524    -63.881653    -23.868067    0.284012    -29.877485    -2.206502    -5.913282    -13.474154    -16.554108    -9.273628    0.571150    32.049198    -22.708580    83.779816    1.182457    -7.719787    16.334459    -5.127851    -9.161782    28.184969    21.815950    -5.947804    -0.494388    -14.722568    39.865364    -19.290812    4.624677    -28.659546    42.812439    0.000000    0.000000    0.000000    -16.081196    -16.175497    -15.545909    8.932899    22.931942    -16.450502    5.671157    10.256845    -14.456341    0.000000    0.000000    0.000000    
11.692931    154.499664    -119.670845    -1.638903    -7.450203    46.355255    0.709881    -1.950853    -1.367074    -9.714601    4.119590    -0.110366    -1.790998    -0.956421    -20.861841    20.832769    7.539831    -19.987833    9.914909    5.862687    -31.820808    -18.466726    28.200443    -64.293228    -24.227158    0.363063    -31.256222    -2.552560    -6.210774    -13.496444    -16.538565    -9.262677    0.565565    32.037807    -22.703735    83.798744    1.185025    -7.702886    16.352385    -5.152297    -9.151943    28.192482    21.792521    -5.941989    -0.506244    -14.708969    39.837593    -19.316149    4.613592    -28.645037    42.815269    0.000000    0.000000    0.000000    -16.102020    -16.170414    -15.512055    8.942208    22.927706    -16.460545    5.682081    10.251761    -14.501659    0.000000    0.000000    0.000000    
11.711663    154.510376    -119.660164    -1.633399    -7.425386    46.369087    0.686617    -1.934718    -1.399839    -9.707580    4.070894    -0.125599    -1.797948    -0.915310    -20.850023    20.844950    7.504095    -19.967402    9.895325    5.805916    -31.854477    -18.374393    27.869431    -64.621269    -24.541386    0.426898    -32.791355    -2.371459    -6.625587    -13.274732    -16.517563    -9.260900    0.593127    32.034866    -22.691620    83.801643    1.194728    -7.688854    16.380705    -5.152235    -9.140162    28.203825    21.767534    -5.942985    -0.504021    -14.693548    39.816994    -19.332903    4.602551    -28.624817    42.803616    0.000000    0.000000    0.000000    -16.122404    -16.170218    -15.488976    8.948218    22.918667    -16.499763    5.671119    10.251442    -14.501319    0.000000    0.000000    0.000000    
